<svg xmlns="http://www.w3.org/2000/svg" width="24.18" height="21.796" viewBox="0 0 24.18 21.796">
  <g id="Group_170" data-name="Group 170" transform="translate(-1907.005 33.552)">
    <path id="Path_1293" data-name="Path 1293" d="M1919.729-12.506a11.987,11.987,0,0,1-11.974-11.974,1.409,1.409,0,0,1,1.409-1.409,1.409,1.409,0,0,1,1.409,1.409,9.166,9.166,0,0,0,9.156,9.156,7.9,7.9,0,0,0,7.889-7.889,6.781,6.781,0,0,0-6.774-6.773,5.8,5.8,0,0,0-5.791,5.791,4.405,4.405,0,0,0,1.356,3.154,5,5,0,0,0,3.507,1.433,3.7,3.7,0,0,0,2.711-1.1,3.479,3.479,0,0,0,.915-2.533,2.893,2.893,0,0,0-1.035-2.1,2.174,2.174,0,0,0-1.831-.4,1.551,1.551,0,0,0-1.327,1.219,1.33,1.33,0,0,0,.533,1.4,1.409,1.409,0,0,1,.381,1.955,1.408,1.408,0,0,1-1.955.381,4.147,4.147,0,0,1-1.719-4.3,4.368,4.368,0,0,1,3.558-3.421,5,5,0,0,1,4.1.953,5.708,5.708,0,0,1,2.107,4.175,6.311,6.311,0,0,1-1.672,4.592,6.447,6.447,0,0,1-4.716,1.993,7.729,7.729,0,0,1-5.532-2.238,7.2,7.2,0,0,1-2.2-5.165,8.618,8.618,0,0,1,8.608-8.608,9.6,9.6,0,0,1,9.591,9.59A10.718,10.718,0,0,1,1919.729-12.506Z" transform="translate(0)" fill="#fff" stroke="#000" stroke-width="1.5"/>
  </g>
</svg>
